<svg width="152" height="54" viewBox="0 0 152 54" fill="none" xmlns="http://www.w3.org/2000/svg">
<g clip-path="url(#clip0_182_21751)">
<path d="M12.4908 13.6986C10.6457 13.6986 9.09968 15.0896 8.8958 16.9306L8.7395 18.3455C8.58319 19.7774 9.28317 21.165 10.5268 21.8844L21.8114 28.42C24.4482 29.9474 24.4482 33.7624 21.8114 35.2897L7.45847 43.605C6.46288 44.1812 5.79688 45.2006 5.67116 46.3495C5.61 46.8984 5.67795 47.4576 5.86484 47.9792L7.16965 51.6067C7.68614 53.0454 9.04531 54.0034 10.571 54.0034H38.9981C40.5204 54.0034 41.883 53.0454 42.3995 51.6067L43.7043 47.9792C43.8912 47.4576 43.9591 46.9018 43.898 46.3529L40.6733 16.934C40.4728 15.0964 38.9234 13.702 37.0783 13.702H12.4908V13.6986Z" fill="url(#paint0_linear_182_21751)"/>
<mask id="mask0_182_21751" style="mask-type:luminance" maskUnits="userSpaceOnUse" x="5" y="13" width="39" height="42">
<path d="M12.4908 13.6986C10.6457 13.6986 9.09968 15.0896 8.8958 16.9306L8.7395 18.3455C8.58319 19.7774 9.28317 21.165 10.5268 21.8844L21.8114 28.42C24.4482 29.9474 24.4482 33.7624 21.8114 35.2897L7.45847 43.605C6.46288 44.1812 5.79688 45.2006 5.67116 46.3495C5.61 46.8984 5.67795 47.4576 5.86484 47.9792L7.16965 51.6067C7.68614 53.0454 9.04531 54.0034 10.571 54.0034H38.9981C40.5204 54.0034 41.883 53.0454 42.3995 51.6067L43.7043 47.9792C43.8912 47.4576 43.9591 46.9018 43.898 46.3529L40.6733 16.934C40.4728 15.0964 38.9234 13.702 37.0783 13.702H12.4908V13.6986Z" fill="white"/>
</mask>
<g mask="url(#mask0_182_21751)">
<path d="M43.9557 13.6986H5.60999V53.9966H43.9557V13.6986Z" fill="url(#paint1_linear_182_21751)"/>
</g>
<path d="M15.4199 9.39605V9.44719C15.4199 10.3404 16.1402 11.0666 17.0339 11.0666C17.9275 11.0666 18.6479 10.3404 18.6479 9.44719V9.39605C18.6479 6.00038 21.4002 3.23884 24.7846 3.23884C28.1689 3.23884 30.9213 6.00038 30.9213 9.39605V9.44719C30.9213 10.3404 31.645 11.0666 32.5353 11.0666C33.4255 11.0666 34.1493 10.3404 34.1493 9.44719V9.39605C34.1493 4.2139 29.9494 0 24.7846 0C19.6197 0 15.4199 4.2139 15.4199 9.39605Z" fill="url(#paint2_linear_182_21751)"/>
<mask id="mask1_182_21751" style="mask-type:luminance" maskUnits="userSpaceOnUse" x="15" y="0" width="20" height="12">
<path d="M15.4199 9.39605V9.44719C15.4199 10.3404 16.1402 11.0666 17.0339 11.0666C17.9275 11.0666 18.6479 10.3404 18.6479 9.44719V9.39605C18.6479 6.00038 21.4002 3.23884 24.7846 3.23884C28.1689 3.23884 30.9213 6.00038 30.9213 9.39605V9.44719C30.9213 10.3404 31.645 11.0666 32.5353 11.0666C33.4255 11.0666 34.1493 10.3404 34.1493 9.44719V9.39605C34.1493 4.2139 29.9494 0 24.7846 0C19.6197 0 15.4199 4.2139 15.4199 9.39605Z" fill="white"/>
</mask>
<g mask="url(#mask1_182_21751)">
<path d="M34.1493 0H15.4199V11.0666H34.1493V0Z" fill="url(#paint3_linear_182_21751)"/>
</g>
<path d="M7.44147 25.5664L9.49043 31.5804C9.55159 31.7543 9.55159 31.9452 9.49043 32.1225L7.44147 38.1365C7.19342 38.8695 7.98174 39.5207 8.64774 39.132L19.2867 32.968C20.1464 32.4702 20.1464 31.2292 19.2867 30.7315L8.64774 24.5675C8.51182 24.489 8.36911 24.4515 8.22979 24.4515C7.69971 24.4515 7.24099 24.98 7.44147 25.563" fill="url(#paint4_linear_182_21751)"/>
<mask id="mask2_182_21751" style="mask-type:luminance" maskUnits="userSpaceOnUse" x="7" y="24" width="13" height="16">
<path d="M7.44147 25.5664L9.49043 31.5804C9.55159 31.7543 9.55159 31.9452 9.49043 32.1225L7.44147 38.1365C7.19342 38.8695 7.98174 39.5207 8.64774 39.132L19.2867 32.968C20.1464 32.4702 20.1464 31.2292 19.2867 30.7315L8.64774 24.5675C8.51182 24.489 8.36911 24.4515 8.22979 24.4515C7.69971 24.4515 7.24099 24.98 7.44147 25.563" fill="white"/>
</mask>
<g mask="url(#mask2_182_21751)">
<path d="M20.1464 24.455H7.19342V39.5207H20.1464V24.455Z" fill="url(#paint5_linear_182_21751)"/>
</g>
<path d="M1.92321 26.5653C1.2708 26.5653 0.740723 27.0972 0.740723 27.7517C0.740723 28.4063 1.2708 28.9382 1.92321 28.9382H3.91779C4.5702 28.9382 5.10028 28.4063 5.10028 27.7517C5.10028 27.0972 4.5702 26.5653 3.91779 26.5653H1.92321Z" fill="url(#paint6_linear_182_21751)"/>
<mask id="mask3_182_21751" style="mask-type:luminance" maskUnits="userSpaceOnUse" x="0" y="26" width="6" height="3">
<path d="M1.92321 26.5653C1.2708 26.5653 0.740723 27.0972 0.740723 27.7517C0.740723 28.4063 1.2708 28.9382 1.92321 28.9382H3.91779C4.5702 28.9382 5.10028 28.4063 5.10028 27.7517C5.10028 27.0972 4.5702 26.5653 3.91779 26.5653H1.92321Z" fill="white"/>
</mask>
<g mask="url(#mask3_182_21751)">
<path d="M5.10368 26.5653H0.740723V28.9382H5.10368V26.5653Z" fill="url(#paint7_linear_182_21751)"/>
</g>
<path d="M3.36394 30.6667C2.71154 30.6667 2.18146 31.1986 2.18146 31.8532C2.18146 32.5078 2.71154 33.0396 3.36394 33.0396H5.35853C6.01093 33.0396 6.54101 32.5078 6.54101 31.8532C6.54101 31.1986 6.01093 30.6667 5.35853 30.6667H3.36394Z" fill="url(#paint8_linear_182_21751)"/>
<mask id="mask4_182_21751" style="mask-type:luminance" maskUnits="userSpaceOnUse" x="2" y="30" width="5" height="4">
<path d="M3.36394 30.6667C2.71154 30.6667 2.18146 31.1986 2.18146 31.8532C2.18146 32.5078 2.71154 33.0396 3.36394 33.0396H5.35853C6.01093 33.0396 6.54101 32.5078 6.54101 31.8532C6.54101 31.1986 6.01093 30.6667 5.35853 30.6667H3.36394Z" fill="white"/>
</mask>
<g mask="url(#mask4_182_21751)">
<path d="M6.54441 30.6667H2.18146V33.0396H6.54441V30.6667Z" fill="url(#paint9_linear_182_21751)"/>
</g>
<path d="M1.18248 34.7646C0.530078 34.7646 0 35.2965 0 35.9511C0 36.6057 0.530078 37.1375 1.18248 37.1375H3.18047C3.83288 37.1375 4.36295 36.6057 4.36295 35.9511C4.36295 35.2965 3.83288 34.7646 3.18047 34.7646H1.18248Z" fill="url(#paint10_linear_182_21751)"/>
<mask id="mask5_182_21751" style="mask-type:luminance" maskUnits="userSpaceOnUse" x="0" y="34" width="5" height="4">
<path d="M1.18248 34.7646C0.530078 34.7646 0 35.2965 0 35.9511C0 36.6057 0.530078 37.1375 1.18248 37.1375H3.18047C3.83288 37.1375 4.36295 36.6057 4.36295 35.9511C4.36295 35.2965 3.83288 34.7646 3.18047 34.7646H1.18248Z" fill="white"/>
</mask>
<g mask="url(#mask5_182_21751)">
<path d="M4.36295 34.7646H0V37.1375H4.36295V34.7646Z" fill="url(#paint11_linear_182_21751)"/>
</g>
<path d="M49.79 20.2615H56.8747C61.8085 20.2615 63.7589 22.6787 63.7589 25.4402C63.7589 27.8574 62.24 29.5246 60.2047 30.0428C62.5288 30.1587 64.5065 32.3168 64.5065 34.9624C64.5065 38.2421 61.5231 40.4002 57.2519 40.4002H49.7968V20.2581L49.79 20.2615ZM56.8169 28.72C59.3994 28.72 60.3712 27.3085 60.344 25.9857C60.3168 24.5197 59.0833 23.1355 56.6742 23.1355H53.0316V28.7165H56.8169V28.72ZM57.2485 37.5262C59.3144 37.5262 60.7483 36.1454 60.7483 34.4203C60.7483 32.6066 59.1989 31.3417 57.0208 31.3417H53.035V37.5262H57.2519H57.2485Z" fill="#252E3D"/>
<path d="M68.2034 20.6365C69.3214 20.6365 70.181 21.5297 70.181 22.6514C70.181 23.773 69.3214 24.7242 68.2034 24.7242C67.0855 24.7242 66.2258 23.8617 66.2258 22.6514C66.2258 21.4411 67.1161 20.6365 68.2034 20.6365ZM66.5962 25.8459H69.8073V40.4343H66.5962V25.8459Z" fill="#252E3D"/>
<path d="M74.1091 40.6628C74.8532 42.5038 77.2929 44.0005 79.9875 44.0005C82.682 44.0005 85.1218 42.5038 85.8659 40.6628L88.0746 42.5038C87.13 44.2596 84.3165 46.762 79.9875 46.762C75.6585 46.762 72.8484 44.2596 71.9004 42.5038L74.1091 40.6628ZM79.6137 25.788H87.7858V28.062H85.3766C86.5523 29.3268 87.2421 31.0553 87.2421 33.0396C87.2421 37.2705 84.2009 40.4923 79.6137 40.4923C75.0265 40.4923 72.0431 37.2705 72.0431 33.0396C72.0431 28.8086 75.0537 25.788 79.6137 25.788ZM83.7422 33.0396C83.7422 30.5371 82.3355 28.6961 79.6137 28.6961C76.892 28.6961 75.5124 30.5371 75.5124 33.0396C75.5124 35.542 76.9463 37.5569 79.6137 37.5569C82.2811 37.5569 83.7422 35.5147 83.7422 33.0396Z" fill="#252E3D"/>
<path d="M101.412 27.946L99.0024 30.2473C98.2582 29.47 96.9942 28.7506 95.5603 28.7506C94.4695 28.7506 93.5826 29.1529 93.5826 29.7291C93.5826 30.5644 95.5602 31.1985 96.7359 31.6281L97.4257 31.8872C99.5188 32.6645 101.697 33.6123 101.697 36.0874C101.697 38.7637 99.1145 40.6354 95.5331 40.6354C92.4919 40.6354 90.0828 39.282 89.2231 37.4989L91.0002 35.0817C91.6322 36.6943 93.5249 37.9012 95.7607 37.9012C97.3951 37.9012 98.3432 37.2671 98.3432 36.4045C98.3432 35.426 97.0519 35.1669 95.4753 34.6794L94.8433 34.4782C92.4919 33.7316 89.7973 32.4054 89.7973 29.9336C89.7973 27.6596 92.0638 25.9618 95.6486 25.9618C98.316 25.9618 100.236 26.9096 101.412 27.946Z" fill="#252E3D"/>
<path d="M104.854 40.4036V28.7779H102.845V25.7879H104.796L105.598 21.7308H108.065V25.7879H110.647V28.7779H108.065V40.4036H104.854Z" fill="#252E3D"/>
<path d="M119.366 25.788C123.926 25.788 126.995 28.7813 126.995 33.0396C126.995 37.2978 123.953 40.4923 119.366 40.4923C114.779 40.4923 111.796 37.2705 111.796 33.0396C111.796 28.8086 114.806 25.788 119.366 25.788ZM123.495 33.0396C123.495 30.5371 122.088 28.6961 119.366 28.6961C116.644 28.6961 115.265 30.5371 115.265 33.0396C115.265 35.542 116.699 37.5569 119.366 37.5569C122.034 37.5569 123.495 35.5147 123.495 33.0396Z" fill="#252E3D"/>
<path d="M136.974 28.8086C136.689 28.7234 136.431 28.6927 136.142 28.6927C134.049 28.6927 131.925 30.7349 131.925 32.9509V40.431H128.714V25.8425H131.925V27.9734C133.128 26.5619 134.878 25.6141 137.171 25.788L136.971 28.8086H136.974Z" fill="#252E3D"/>
<path d="M140.929 33.3839C141.045 35.8591 142.822 37.6421 145.258 37.6421C146.893 37.6421 148.242 36.8375 149.129 35.2829L151.681 37.1819C150.162 39.4252 148.038 40.5196 145.228 40.5196C140.495 40.5196 137.457 37.441 137.457 33.1521C137.457 29.2109 140.352 25.788 144.942 25.788C149.214 25.788 151.997 28.7813 151.997 33.3839H140.926H140.929ZM148.157 30.6803C147.467 29.5587 146.264 28.6961 144.83 28.6961C143.396 28.6961 142.163 29.5587 141.446 30.6803H148.157Z" fill="#252E3D"/>
</g>
<defs>
<linearGradient id="paint0_linear_182_21751" x1="24.7846" y1="13.6986" x2="24.7846" y2="54.0034" gradientUnits="userSpaceOnUse">
<stop stop-color="#F04924"/>
<stop offset="1" stop-color="#ED1D57"/>
</linearGradient>
<linearGradient id="paint1_linear_182_21751" x1="24.7829" y1="13.6986" x2="24.7829" y2="53.9966" gradientUnits="userSpaceOnUse">
<stop stop-color="#F04924"/>
<stop offset="1" stop-color="#ED1D57"/>
</linearGradient>
<linearGradient id="paint2_linear_182_21751" x1="24.7846" y1="0" x2="24.7846" y2="11.0666" gradientUnits="userSpaceOnUse">
<stop stop-color="#F04924"/>
<stop offset="1" stop-color="#ED1D57"/>
</linearGradient>
<linearGradient id="paint3_linear_182_21751" x1="24.7846" y1="0" x2="24.7846" y2="11.0666" gradientUnits="userSpaceOnUse">
<stop stop-color="#F04924"/>
<stop offset="1" stop-color="#ED1D57"/>
</linearGradient>
<linearGradient id="paint4_linear_182_21751" x1="13.6624" y1="24.4515" x2="13.6624" y2="39.2482" gradientUnits="userSpaceOnUse">
<stop stop-color="#F04924"/>
<stop offset="1" stop-color="#ED1D57"/>
</linearGradient>
<linearGradient id="paint5_linear_182_21751" x1="13.6699" y1="24.455" x2="13.6699" y2="39.5207" gradientUnits="userSpaceOnUse">
<stop stop-color="#F04924"/>
<stop offset="1" stop-color="#ED1D57"/>
</linearGradient>
<linearGradient id="paint6_linear_182_21751" x1="2.9205" y1="26.5653" x2="2.9205" y2="28.9382" gradientUnits="userSpaceOnUse">
<stop stop-color="#F04924"/>
<stop offset="1" stop-color="#ED1D57"/>
</linearGradient>
<linearGradient id="paint7_linear_182_21751" x1="2.9222" y1="26.5653" x2="2.9222" y2="28.9382" gradientUnits="userSpaceOnUse">
<stop stop-color="#F04924"/>
<stop offset="1" stop-color="#ED1D57"/>
</linearGradient>
<linearGradient id="paint8_linear_182_21751" x1="4.36124" y1="30.6667" x2="4.36124" y2="33.0396" gradientUnits="userSpaceOnUse">
<stop stop-color="#F04924"/>
<stop offset="1" stop-color="#ED1D57"/>
</linearGradient>
<linearGradient id="paint9_linear_182_21751" x1="4.36293" y1="30.6667" x2="4.36293" y2="33.0396" gradientUnits="userSpaceOnUse">
<stop stop-color="#F04924"/>
<stop offset="1" stop-color="#ED1D57"/>
</linearGradient>
<linearGradient id="paint10_linear_182_21751" x1="2.18148" y1="34.7646" x2="2.18148" y2="37.1375" gradientUnits="userSpaceOnUse">
<stop stop-color="#F04924"/>
<stop offset="1" stop-color="#ED1D57"/>
</linearGradient>
<linearGradient id="paint11_linear_182_21751" x1="2.18148" y1="34.7646" x2="2.18148" y2="37.1375" gradientUnits="userSpaceOnUse">
<stop stop-color="#F04924"/>
<stop offset="1" stop-color="#ED1D57"/>
</linearGradient>
<clipPath id="clip0_182_21751">
<rect width="152" height="54" fill="white"/>
</clipPath>
</defs>
</svg>
