<svg width="25" height="21" viewBox="0 0 25 21" fill="none" xmlns="http://www.w3.org/2000/svg">
<path d="M24.375 14.25H23.75V10.0312C23.75 9.5625 23.5156 9.05469 23.1641 8.70312L19.2969 4.83594C18.9453 4.48438 18.4375 4.25 17.9688 4.25H16.25V2.375C16.25 1.35938 15.3906 0.5 14.375 0.5H4.375C3.32031 0.5 2.5 1.35938 2.5 2.375V4.25H0.3125C0.117188 4.25 0 4.40625 0 4.5625V5.1875C0 5.38281 0.117188 5.5 0.3125 5.5H10.9375C11.0938 5.5 11.25 5.65625 11.25 5.8125V6.4375C11.25 6.63281 11.0938 6.75 10.9375 6.75H1.5625C1.36719 6.75 1.25 6.90625 1.25 7.0625V7.6875C1.25 7.88281 1.36719 8 1.5625 8H9.6875C9.84375 8 10 8.15625 10 8.3125V8.9375C10 9.13281 9.84375 9.25 9.6875 9.25H0.3125C0.117188 9.25 0 9.40625 0 9.5625V10.1875C0 10.3828 0.117188 10.5 0.3125 10.5H8.4375C8.59375 10.5 8.75 10.6562 8.75 10.8125V11.4375C8.75 11.6328 8.59375 11.75 8.4375 11.75H2.5V16.75C2.5 18.8203 4.17969 20.5 6.25 20.5C8.32031 20.5 10 18.8203 10 16.75H15C15 18.8203 16.6797 20.5 18.75 20.5C20.8203 20.5 22.5 18.8203 22.5 16.75H24.375C24.6875 16.75 25 16.4766 25 16.125V14.875C25 14.5625 24.6875 14.25 24.375 14.25ZM6.25 18.625C5.19531 18.625 4.375 17.8047 4.375 16.75C4.375 15.7344 5.19531 14.875 6.25 14.875C7.26562 14.875 8.125 15.7344 8.125 16.75C8.125 17.8047 7.26562 18.625 6.25 18.625ZM18.75 18.625C17.6953 18.625 16.875 17.8047 16.875 16.75C16.875 15.7344 17.6953 14.875 18.75 14.875C19.7656 14.875 20.625 15.7344 20.625 16.75C20.625 17.8047 19.7656 18.625 18.75 18.625ZM21.875 10.5H16.25V6.125H17.9688L21.875 10.0312V10.5Z" fill="#818A91"/>
</svg>
