<svg width="20" height="21" viewBox="0 0 20 21" fill="none" xmlns="http://www.w3.org/2000/svg">
<path d="M18.2031 3.78125L10.7031 0.65625C10.4688 0.578125 10.2344 0.539062 10 0.539062C9.72656 0.539062 9.49219 0.578125 9.25781 0.65625L1.75781 3.78125C1.05469 4.09375 0.625 4.75781 0.625 5.5C0.625 13.2734 5.07812 18.625 9.25781 20.3828C9.72656 20.5781 10.2344 20.5781 10.7031 20.3828C14.0625 18.9766 19.375 14.1719 19.375 5.5C19.375 4.75781 18.9062 4.09375 18.2031 3.78125ZM10 17.9609V3.07812L16.8359 5.92969C16.7188 11.8281 13.6328 16.125 10 17.9609Z" fill="#818A91"/>
</svg>
